<?xml version="1.0" encoding="utf-8"?>
<!-- Generator: Adobe Illustrator 16.0.0, SVG Export Plug-In . SVG Version: 6.00 Build 0)  -->
<!DOCTYPE svg PUBLIC "-//W3C//DTD SVG 1.1//EN" "http://www.w3.org/Graphics/SVG/1.1/DTD/svg11.dtd">
<svg version="1.1" id="Layer_1" xmlns="http://www.w3.org/2000/svg" xmlns:xlink="http://www.w3.org/1999/xlink" x="0px" y="0px" enable-background="new 0 0 1024 768" xml:space="preserve">
<g>
	<circle fill="none" stroke="#FFFFFF" stroke-width="15.264" cx="441.424" cy="368.07" r="55.968"/>
	<g>
		<g>
			<path fill="none" stroke="#FFFFFF" stroke-width="15.264" d="M299.613,348.918c0-20.333-16.484-36.816-36.815-36.816
				c-20.334,0-36.816,16.482-36.816,36.816"/>
			<path fill="none" stroke="#FFFFFF" stroke-width="15.264" d="M373.245,348.918c0-20.333-16.484-36.816-36.815-36.816
				c-20.334,0-36.816,16.482-36.816,36.816"/>
		</g>
		<line fill="none" stroke="#FFFFFF" stroke-width="15.264" x1="373.245" y1="348.918" x2="373.245" y2="431.534"/>
		<line fill="none" stroke="#FFFFFF" stroke-width="15.264" x1="225.981" y1="348.918" x2="225.981" y2="431.534"/>
		<line fill="none" stroke="#FFFFFF" stroke-width="15.264" x1="299.613" y1="348.918" x2="299.613" y2="431.534"/>
	</g>
	<circle fill="none" stroke="#FFFFFF" stroke-width="15.264" cx="725.045" cy="368.07" r="55.968"/>
	<g>
		<g>
			<path fill="none" stroke="#FFFFFF" stroke-width="15.264" d="M583.233,348.918c0-20.333-16.481-36.816-36.812-36.816
				c-20.335,0-36.817,16.482-36.817,36.816"/>
			<path fill="none" stroke="#FFFFFF" stroke-width="15.264" d="M656.868,348.918c0-20.333-16.484-36.816-36.816-36.816
				c-20.335,0-36.818,16.482-36.818,36.816"/>
		</g>
		<line fill="none" stroke="#FFFFFF" stroke-width="15.264" x1="656.868" y1="348.918" x2="656.868" y2="431.534"/>
		<line fill="none" stroke="#FFFFFF" stroke-width="15.264" x1="509.604" y1="348.918" x2="509.604" y2="431.534"/>
		<line fill="none" stroke="#FFFFFF" stroke-width="15.264" x1="583.233" y1="348.918" x2="583.233" y2="431.534"/>
	</g>
	<g>
		<circle fill="#FFFFFF" cx="721.333" cy="335.562" r="8.777"/>
		<circle fill="none" stroke="#FFFFFF" stroke-width="7.632" cx="682.027" cy="285.954" r="17.935"/>
		<circle fill="none" stroke="#FFFFFF" stroke-width="6.1056" cx="727.057" cy="283.124" r="11.984"/>
		<circle fill="none" stroke="#FFFFFF" stroke-width="4.5792" cx="759.686" cy="296.863" r="7.784"/>
		<circle fill="none" stroke="#FFFFFF" stroke-width="3.0528" cx="780.103" cy="314.438" r="5.507"/>
	</g>
	<g>
		<g>
			<path fill="#FFFFFF" d="M589.603,442.008c0.352,0.024,0.83,0.061,1.438,0.108v5.556c-0.384-0.048-1.026-0.084-1.928-0.107
				c-0.902-0.024-1.525,0.176-1.868,0.599c-0.344,0.423-0.515,0.89-0.515,1.4c0,0.512,0,1.246,0,2.203h4.478v4.814h-4.478v21.05
				h-6.777v-21.05h-3.832v-4.814h3.736v-1.676c0-2.794,0.471-4.718,1.412-5.771c0.99-1.564,3.377-2.347,7.161-2.347
				C588.86,441.973,589.251,441.984,589.603,442.008z"/>
			<path fill="#FFFFFF" d="M599.699,448.414h-6.921v-6.298h6.921V448.414z M592.778,451.527h6.921v26.104h-6.921V451.527z"/>
			<path fill="#FFFFFF" d="M609.149,469.297c0.145,1.214,0.457,2.076,0.938,2.587c0.851,0.909,2.422,1.364,4.716,1.364
				c1.348,0,2.419-0.199,3.213-0.599c0.794-0.398,1.191-0.997,1.191-1.796c0-0.767-0.32-1.349-0.96-1.748s-3.02-1.086-7.14-2.06
				c-2.967-0.734-5.057-1.652-6.27-2.754c-1.214-1.086-1.82-2.65-1.82-4.694c0-2.41,0.948-4.481,2.844-6.214
				c1.896-1.732,4.564-2.599,8.004-2.599c3.264,0,5.924,0.65,7.979,1.952c2.056,1.301,3.236,3.548,3.54,6.741h-6.825
				c-0.096-0.878-0.344-1.572-0.744-2.084c-0.753-0.926-2.033-1.389-3.842-1.389c-1.489,0-2.55,0.231-3.182,0.694
				c-0.633,0.463-0.949,1.006-0.949,1.629c0,0.782,0.336,1.349,1.009,1.7c0.672,0.367,3.048,0.998,7.126,1.892
				c2.719,0.639,4.757,1.604,6.114,2.897c1.342,1.31,2.012,2.946,2.012,4.909c0,2.587-0.964,4.698-2.892,6.335
				c-1.928,1.636-4.907,2.454-8.938,2.454c-4.111,0-7.146-0.866-9.106-2.598c-1.96-1.732-2.939-3.939-2.939-6.622H609.149z"/>
			<path fill="#FFFFFF" d="M647.441,451.672c1.311,0.56,2.388,1.414,3.23,2.564c0.716,0.976,1.152,1.979,1.312,3.009
				s0.238,2.713,0.238,5.045v15.341h-6.969v-15.896c0-1.406-0.237-2.541-0.713-3.404c-0.618-1.215-1.791-1.822-3.519-1.822
				c-1.79,0-3.149,0.604-4.077,1.811c-0.927,1.206-1.39,2.929-1.39,5.166v14.146h-6.825v-35.18h6.825v12.453
				c0.985-1.517,2.126-2.574,3.421-3.173c1.296-0.599,2.659-0.898,4.09-0.898C644.671,450.833,646.13,451.113,647.441,451.672z"/>
			<path fill="#FFFFFF" d="M672.654,469.297c0.145,1.214,0.457,2.076,0.938,2.587c0.851,0.909,2.422,1.364,4.716,1.364
				c1.348,0,2.419-0.199,3.213-0.599c0.794-0.398,1.191-0.997,1.191-1.796c0-0.767-0.32-1.349-0.96-1.748s-3.02-1.086-7.14-2.06
				c-2.967-0.734-5.057-1.652-6.27-2.754c-1.214-1.086-1.82-2.65-1.82-4.694c0-2.41,0.948-4.481,2.844-6.214
				c1.896-1.732,4.564-2.599,8.004-2.599c3.264,0,5.924,0.65,7.979,1.952c2.056,1.301,3.236,3.548,3.54,6.741h-6.825
				c-0.096-0.878-0.344-1.572-0.744-2.084c-0.753-0.926-2.033-1.389-3.842-1.389c-1.489,0-2.55,0.231-3.182,0.694
				c-0.633,0.463-0.949,1.006-0.949,1.629c0,0.782,0.336,1.349,1.009,1.7c0.672,0.367,3.048,0.998,7.126,1.892
				c2.719,0.639,4.757,1.604,6.114,2.897c1.342,1.31,2.012,2.946,2.012,4.909c0,2.587-0.964,4.698-2.892,6.335
				c-1.928,1.636-4.907,2.454-8.938,2.454c-4.111,0-7.146-0.866-9.106-2.598c-1.96-1.732-2.939-3.939-2.939-6.622H672.654z"/>
			<path fill="#FFFFFF" d="M714.138,454.329c2.129,2.252,3.193,5.557,3.193,9.915c0,4.598-1.04,8.103-3.121,10.513
				c-2.081,2.411-4.761,3.616-8.038,3.616c-2.089,0-3.825-0.519-5.207-1.557c-0.755-0.574-1.494-1.413-2.217-2.515v13.603h-6.754
				v-36.377h6.538v3.855c0.739-1.133,1.526-2.027,2.362-2.682c1.526-1.165,3.342-1.748,5.446-1.748
				C709.41,450.953,712.009,452.078,714.138,454.329z M708.899,459.239c-0.928-1.549-2.432-2.323-4.512-2.323
				c-2.5,0-4.218,1.173-5.153,3.521c-0.484,1.245-0.726,2.825-0.726,4.741c0,3.034,0.813,5.165,2.441,6.395
				c0.968,0.718,2.112,1.077,3.436,1.077c1.92,0,3.384-0.734,4.393-2.203c1.008-1.469,1.513-3.425,1.513-5.867
				C710.291,462.567,709.827,460.787,708.899,459.239z"/>
			<path fill="#FFFFFF" d="M730.031,461.753c1.271-0.159,2.18-0.358,2.727-0.599c0.98-0.415,1.472-1.062,1.472-1.939
				c0-1.069-0.377-1.808-1.129-2.215c-0.753-0.407-1.857-0.611-3.313-0.611c-1.635,0-2.792,0.399-3.472,1.197
				c-0.485,0.591-0.81,1.39-0.971,2.396h-6.586c0.145-2.283,0.785-4.159,1.924-5.628c1.812-2.299,4.923-3.448,9.333-3.448
				c2.869,0,5.419,0.566,7.648,1.7c2.229,1.134,3.343,3.272,3.343,6.418v11.974c0,0.83,0.016,1.836,0.048,3.018
				c0.048,0.895,0.184,1.501,0.407,1.82c0.223,0.319,0.559,0.583,1.006,0.79v1.006h-7.424c-0.208-0.527-0.352-1.021-0.432-1.484
				s-0.144-0.99-0.191-1.581c-0.947,1.022-2.04,1.892-3.276,2.61c-1.477,0.846-3.147,1.27-5.01,1.27c-2.377,0-4.34-0.675-5.89-2.023
				c-1.55-1.35-2.324-3.261-2.324-5.736c0-3.209,1.246-5.531,3.739-6.969c1.367-0.782,3.378-1.341,6.031-1.676L730.031,461.753z
				 M734.205,464.938c-0.438,0.271-0.878,0.491-1.323,0.658c-0.445,0.168-1.056,0.323-1.833,0.468l-1.554,0.287
				c-1.456,0.255-2.502,0.566-3.137,0.934c-1.075,0.623-1.612,1.589-1.612,2.897c0,1.166,0.328,2.009,0.984,2.527
				s1.455,0.778,2.396,0.778c1.491,0,2.865-0.432,4.122-1.294c1.256-0.861,1.908-2.435,1.957-4.718V464.938z"/>
		</g>
	</g>
	<path fill="#FFFFFF" d="M757.188,454.238c-1.055-1.055-1.707-2.513-1.707-4.122v-37.584c0-3.222,2.609-5.832,5.832-5.832h37.584
		c1.609,0,3.067,0.652,4.122,1.707L757.188,454.238z"/>
</g>
</svg>
